<svg xmlns="http://www.w3.org/2000/svg" width="602.615" height="132.895" viewBox="0 0 602.615 132.895">
    <g transform="translate(-191.75 -3569.924)">
        <path d="M200.824-8.358a17.029,17.029,0,0,0,7.455-2.09,30.374,30.374,0,0,0,8.584-6.946V-48.229a33.127,33.127,0,0,0-5.139-1.242,34.642,34.642,0,0,0-5.591-.452q-9.827,0-14.006,4.631t-4.179,13.78v7.568q0,8.471,3.388,12.029T200.824-8.358Zm16.039.9q-.678.678-2.146,1.92a26.427,26.427,0,0,1-3.558,2.485A25.611,25.611,0,0,1,206.471-.9a17.081,17.081,0,0,1-5.647.9,28.6,28.6,0,0,1-8.979-1.355,18.547,18.547,0,0,1-7.172-4.292,19.647,19.647,0,0,1-4.744-7.624,33.54,33.54,0,0,1-1.694-11.351V-30.5q0-14.345,6.89-21.065t20.783-6.72a54.328,54.328,0,0,1,10.9,1.073,51.037,51.037,0,0,1,9.77,2.993V-2.033a27.413,27.413,0,0,1-1.807,10.052,23.89,23.89,0,0,1-5.083,8.019,23.206,23.206,0,0,1-7.906,5.309,26.9,26.9,0,0,1-10.391,1.92,38.247,38.247,0,0,1-11.182-1.487,48.166,48.166,0,0,1-10.278-4.688l4.631-8.056a36.943,36.943,0,0,0,8.132,3.784,30.31,30.31,0,0,0,8.923,1.186q7.342,0,11.295-4.439a16.5,16.5,0,0,0,3.953-11.4Zm40.1,8.81q-10.843,0-15.643-5.2t-4.8-15.587V-55.571l9.714-2.711v38.855q0,6.664,2.6,9.544T256.96-7a17.376,17.376,0,0,0,7.511-2.09,30.018,30.018,0,0,0,8.641-6.946V-55.571l9.714-2.711v45.293a25.746,25.746,0,0,0,.791,6.946A33.18,33.18,0,0,0,286.1,0H275.709a10.482,10.482,0,0,1-1.355-3.106,17.7,17.7,0,0,1-.678-3.558A28.382,28.382,0,0,1,268.82-2.6,25.069,25.069,0,0,1,263.511.169,17.915,17.915,0,0,1,256.96,1.355ZM307.863-7a15.567,15.567,0,0,0,4.669-.847,44.645,44.645,0,0,0,5.4-2.146q2.757-1.3,5.288-2.654t4.332-2.372v-9.827h-21.04a7.9,7.9,0,0,0-3.377.734,8.8,8.8,0,0,0-2.7,1.92,9.083,9.083,0,0,0-1.8,2.824,8.672,8.672,0,0,0-.675,3.332,7.9,7.9,0,0,0,.844,3.671,9.121,9.121,0,0,0,2.25,2.824,11.07,11.07,0,0,0,3.151,1.864A10.012,10.012,0,0,0,307.863-7Zm6.653-51.279a28.069,28.069,0,0,1,8.841,1.355,21.622,21.622,0,0,1,7.208,3.953,18.572,18.572,0,0,1,4.9,6.438,20.8,20.8,0,0,1,1.8,8.923v24.623A27.231,27.231,0,0,0,338-6.212,28.863,28.863,0,0,0,340.542,0H330.151a9.451,9.451,0,0,1-1.412-3.163,19.138,19.138,0,0,1-.621-3.5A48.936,48.936,0,0,1,317.9-.96a29.427,29.427,0,0,1-11.351,2.315A20.3,20.3,0,0,1,299.372.109a17.293,17.293,0,0,1-5.817-3.569,16.613,16.613,0,0,1-3.9-5.552,17.782,17.782,0,0,1-1.412-7.2,15.88,15.88,0,0,1,1.468-6.855,17.023,17.023,0,0,1,3.953-5.383,17.916,17.916,0,0,1,5.76-3.513,19.2,19.2,0,0,1,6.89-1.247h21.234v-5.127q0-6.018-3.657-8.748a15.824,15.824,0,0,0-9.4-2.841,28.15,28.15,0,0,0-8.889,1.242,42.907,42.907,0,0,0-8.1,3.84L293.33-52.1q2.711-1.6,5.135-2.747a39.586,39.586,0,0,1,4.957-1.947,29.71,29.71,0,0,1,5.237-1.145A46.634,46.634,0,0,1,314.516-58.282Zm47.26,7.116a16.846,16.846,0,0,1,5.026-5.252,12.511,12.511,0,0,1,6.946-1.864,21.042,21.042,0,0,1,9.375,2.485l-3.388,9.036a14.2,14.2,0,0,0-6.438-1.807,8.8,8.8,0,0,0-5.139,1.525,11.7,11.7,0,0,0-3.614,4.123,21.119,21.119,0,0,0-2.09,6.156,40.737,40.737,0,0,0-.678,7.624V0h-9.714V-42.921a24.657,24.657,0,0,0-2.6-11.182l8.923-4.179a30.418,30.418,0,0,1,1.638,3.332,16.959,16.959,0,0,1,1.073,3.784Zm62.122,3.84a18.2,18.2,0,0,0-5.309-1.92,30.64,30.64,0,0,0-6.438-.678q-8.471,0-13.1,5.252t-4.631,14.4v6.777a27.559,27.559,0,0,0,.678,6.212,15.326,15.326,0,0,0,2.259,5.252,11.7,11.7,0,0,0,4.01,3.671A12.262,12.262,0,0,0,407.408-7a18.445,18.445,0,0,0,7.681-2.09,29.067,29.067,0,0,0,8.81-6.946Zm0-29.819,9.714-2.711v66.866a25.746,25.746,0,0,0,.791,6.946A33.18,33.18,0,0,0,436.888,0H426.5a10.482,10.482,0,0,1-1.355-3.106,17.7,17.7,0,0,1-.678-3.558,32.507,32.507,0,0,1-4.97,4.066A24.314,24.314,0,0,1,414.072.169a18.822,18.822,0,0,1-6.664,1.186A24.126,24.126,0,0,1,397.017-.678a19.721,19.721,0,0,1-7.059-5.478,21.7,21.7,0,0,1-4.01-8.076,37.781,37.781,0,0,1-1.242-9.827V-29.48q0-14.458,7.116-21.63t21.234-7.172A29.869,29.869,0,0,1,423.9-56.136Z" transform="translate(357.477 3668.868)" fill="#fff"/>
        <g>
            <path d="M324.645,3593.611v13.429l-17.572,6.395-12.621,4.595-15.793,5.749-12.631,4.595-15.788,5.744v.005l-12.626,4.595-15.793,5.744v0l-12.616,4.59-17.455,6.354v-13.429l17.455-6.354,12.616-4.59v-.005l15.793-5.744,12.626-4.595v-.005l15.788-5.744,12.631-4.6,15.793-5.749,12.621-4.595Z" fill="#fff"/>
            <path d="M221.821,3649.854v48.37l-12.616,4.6v-48.375Z" fill="#d6a351"/>
            <path d="M250.24,3639.51v48.37l-12.626,4.595v-48.37Z" fill="#d6a351"/>
            <path d="M278.659,3629.167v48.37l-12.631,4.6v-48.375Z" fill="#d6a351"/>
            <path d="M307.073,3618.823V3667.2l-12.621,4.59v-48.37Z" fill="#d6a351"/>
            <path d="M307.073,3569.924v24.693l-12.621,4.59v-29.283Z" fill="#d6a351"/>
            <path d="M278.659,3569.924v35.032l-12.631,4.595v-39.627Z" fill="#d6a351"/>
            <path d="M250.24,3569.924V3615.3l-12.626,4.595v-49.971Z" fill="#d6a351"/>
            <path d="M221.821,3569.924v55.72l-12.616,4.59v-60.31Z" fill="#d6a351"/>
        </g>
        <path d="M8.81-63.252a22.5,22.5,0,0,1,.847-6.156,15.3,15.3,0,0,1,2.654-5.309,13.089,13.089,0,0,1,4.744-3.727,16.025,16.025,0,0,1,7-1.412,27.358,27.358,0,0,1,4.349.4,31.076,31.076,0,0,1,4.236.96v9.714H28.124a6.757,6.757,0,0,0-5.252,1.92,7.587,7.587,0,0,0-1.751,5.309v4.631H32.078L28.8-46.761H21.122V0H8.81V-46.761H1.694V-56.926H8.81ZM40.775,0V-56.926H53.086V0Zm5.873-79.855a6.658,6.658,0,0,1,4.744,1.807A6.5,6.5,0,0,1,53.425-73.3a6.043,6.043,0,0,1-2.033,4.744,6.658,6.658,0,0,1-4.744,1.807A6.415,6.415,0,0,1,41.9-68.56,6.043,6.043,0,0,1,39.871-73.3,6.5,6.5,0,0,1,41.9-78.048,6.415,6.415,0,0,1,46.648-79.855ZM81.549,0,60.767-55.232l11.182-3.05,13.1,34.675,2.372,11.069,2.259-11.069,13.1-34.675,11.182,3.05L93.183,0Zm46.874-24.623a20.563,20.563,0,0,0,.847,6.043,11.254,11.254,0,0,0,2.824,4.744,13.522,13.522,0,0,0,5.252,3.106A25.206,25.206,0,0,0,145.479-9.6a14.587,14.587,0,0,0,6.664-1.242,23.076,23.076,0,0,0,5.083-3.84L167.391-10.5a22.247,22.247,0,0,1-9.6,8.979,29.312,29.312,0,0,1-12.876,2.88q-14.119,0-21.46-7.342t-7.342-21.686v-4.066q0-1.355.113-2.6a23.4,23.4,0,0,1,2.485-9.827,24.456,24.456,0,0,1,5.986-7.568,26.743,26.743,0,0,1,8.584-4.857,30.981,30.981,0,0,1,10.278-1.694,29.162,29.162,0,0,1,11.069,1.977,23.4,23.4,0,0,1,8.245,5.535,23.437,23.437,0,0,1,5.139,8.584,33.643,33.643,0,0,1,1.751,11.126v6.438Zm0-10.5h29.028a11.972,11.972,0,0,0-1.017-4.97,10.761,10.761,0,0,0-2.88-3.84,13.96,13.96,0,0,0-4.405-2.485,16.587,16.587,0,0,0-5.591-.9,22.733,22.733,0,0,0-5.535.678,14.275,14.275,0,0,0-4.857,2.2,11.631,11.631,0,0,0-3.445,3.84A11.019,11.019,0,0,0,128.423-35.127Z" transform="translate(357.477 3668.869)" fill="#d6a351"/>
    </g>
</svg>