<svg width="1892" height="902" viewBox="0 0 1892 902" fill="none" xmlns="http://www.w3.org/2000/svg">
    <path d="M406 428.5H451M406 428.5V406M406 428.5V451M451 428.5V406M451 428.5V451M451 406H406M451 406V361M361 406H383.5M361 406V361M361 406V451M383.5 406V383.5M383.5 406H406M394 383.5V361M394 383.5H406M394 383.5H383.5M394 361H406M394 361H383.5M406 361V373M406 361H451M383.5 361L361 361M383.5 361V383.5M406 373H394.75M406 373V383.5M406 383.5V406M811 68.5001H823H833.5M811 68.5001V46.0001M811 68.5001V91M833.5 68.5001V46.0001M833.5 68.5001V91M811 46.0001H823H833.5M811 46.0001V1.00006M833.5 46.0001L856 46.0001M856 46.0001L901 46.0001M856 46.0001V91M856 46.0001V1.00007M901 46.0001V91.0001M901 46.0001V1.00007M901 226H946M901 226V181M901 226V271H946M946 226H991M946 226V271M856 91H833.5M856 91L901 91.0001M833.5 91H823H811M811 91L721 91M811 91V181M901 181V91.0001M901 181H811M901 181H991M901 91.0001L991 91.0001M181 361V271M181 361H91.0001M181 361V451M181 271V181M181 271H91.0001M181 271H271M181 181V136M181 181L226 181M181 181H91.0001M181 136V91M181 136L226 136M181 136H91.0001M181 91V46M181 91L91.0001 91M181 91L226 91M181 46H91.0001M181 46V1.00001M361 361V271M271 271V181M271 271L361 271M271 181V136M271 181H226M271 181L361 181M271 136H226M271 136V91M226 136V181M226 136V91M361 181H451M361 181V271M361 181V91M451 181L541 181M451 181V271M451 181V91M541 181H631M541 181V271M541 181V91M631 181L721 181M631 181V271M631 181L631 91M721 181V91M721 181V271M721 181L811 181M226 91V90.625M226 91H271M1.00012 46V1L91.0001 1M1.00012 46H91.0001M1.00012 46V91M91.0001 46V1M91.0001 46V91M1.00012 91L91.0001 91M1.00012 91V136M91.0001 91V136M271 91L361 91M271 91V1.00002M361 91L451 91M361 91V1.00002M451 91L541 91M451 91V1.00003M541 91L631 91M541 91V1.00004M631 91L721 91M631 91V1.00005M721 91V1.00005M1.00012 136H91.0001M1.00012 136V181M91.0001 136V181M1.00012 181H91.0001M1.00012 181V271M91.0001 181V271M1.00012 271H91.0001M1.00012 271V361M91.0001 271V361M1.00012 361H91.0001M1.00012 361V451M91.0001 361V451M1.00012 451L91.0001 451M1.00012 451V496M721 451H811V541H721M721 451H631M721 451V541M721 451V271M631 451H541M631 451L631 541M541 451H451M541 451V271M541 451V541M451 451H406M451 451V541M406 451H361M361 451L181 451M361 451V541M181 451L91.0001 451M181 451V496M181 1.00001L271 1.00002M181 1.00001L91.0001 1M271 1.00002L361 1.00002M361 1.00002L451 1.00003M361 271H451M451 1.00003L541 1.00004M541 1.00004L631 1.00005M541 271H451M541 271L631 271M631 1.00005L721 1.00005M721 1.00005L811 1.00006M811 1.00006L823 1.00006L833.5 1.00006L856 1.00007M856 1.00007L901 1.00007M901 1.00007L991 1.00008M991 1.00008L991 46M991 1.00008L1081 1.00001M991 91.0001L991 46M991 91.0001L1081 91M991 91.0001L991 136M991 181L991 158.5M991 181L1036 181M991 181V271M946 271H991M991 271L1081 271M721 271H631M451 361V271M91.0001 451V496M406 878.5H451M406 878.5V856M406 878.5V901M451 878.5V856M451 878.5V901M451 856H406M451 856V811M361 856H383.5M361 856V811M361 856V901M383.5 856V833.5M383.5 856H406M394 833.5V811M394 833.5H406M394 833.5H383.5M394 811H406M394 811H383.5M406 811V823M406 811H451M383.5 811L361 811M383.5 811V833.5M406 823H394.75M406 823V833.5M406 833.5V856M181 811V721M181 811H91.0001M181 811V901M181 721V631M181 721H91.0001M181 721H271M181 631V586M181 631L91.0001 631M181 631H226M181 586V541M181 586H91.0001M181 586H226M181 541V496M181 541H91.0001M181 541H226M181 496H91.0001M901 856V811M901 856L946 855.625M901 856V901M901 811H946M901 811H811M946 811V855.625M946 811H991M946 855.625V901M361 811V721M271 721V631M271 721L361 721M271 631V586M271 631H226M271 631H361M271 586H226M271 586V541M46.0001 631V608.5M46.0001 631H91.0001M46.0001 631H1.00012M46.0001 608.5V586M46.0001 608.5H1.00012M46.0001 586H91.0001M46.0001 586H1.00012M91.0001 586V631M91.0001 586V541M226 586V631M226 586V541M91.0001 631V721M226 541V540.625M226 541H271M1.00012 496H91.0001M1.00012 496V541M91.0001 496V541M1.00012 541V586M1.00012 541H91.0001M1.00012 586V608.5M1.00012 608.5V631M1.00012 631V721M1.00012 721H91.0001M1.00012 721V811M91.0001 721V811M1.00012 811H91.0001M1.00012 811V901H91.0001M91.0001 811V901M946 901H991M946 901H901M991 901V811M991 901L1081 901M901 901H811M811 901V811M811 901H631M631 901H541M631 901V811M541 901H451M541 901V811M451 901H406M406 901H361M361 901L181 901M181 901L91.0001 901M271 541V451M271 541H361M361 721V631M361 631V541M361 541H451M991 811L1081 811V901M451 811H541M451 541H541M811 811L631 811M721 541L631 541M631 541H541M541 811H631M1306 878.5H1351M1306 878.5V856M1306 878.5V901M1351 878.5V856M1351 878.5V901M1351 856H1306M1351 856V811M1261 856H1283.5M1261 856V811L1283.5 811M1261 856V901M1283.5 856V833.5M1283.5 856H1306M1294 833.5V811M1294 833.5H1306M1294 833.5H1283.5M1294 811H1306M1294 811H1283.5M1306 811V823M1306 811H1351M1283.5 811V833.5M1306 823H1294.75M1306 823V833.5M1306 833.5V856M1711 518.5H1723H1733.5M1711 518.5V496M1711 518.5V541M1733.5 518.5V496M1733.5 518.5V541M1711 496H1723H1733.5M1711 496V451M1733.5 496H1756M1756 496H1801M1756 496V541M1756 496V451M1801 496V541M1801 496V451M1846 676V631M1846 676H1801M1846 676H1891M1846 631H1801M1846 631H1891M1801 676V631M1801 676V721M1756 541H1733.5M1756 541H1801M1733.5 541H1723H1711M1711 541H1621M1801 631V541M1801 541H1891M1801 721H1891M1801 721H1711M1801 856V811M1801 856L1846 855.625M1801 856V901M1801 811H1846M1801 811H1711M1846 811V855.625M1846 811H1891M1846 855.625V901M1846 901H1891V811M1846 901H1801M1801 901H1711M1711 901V811M1711 901H1621M1711 811V721M1711 811L1621 811M1711 721V720.625M1711 721H1621M1621 901V811M1621 901H1531M1621 811V721M1621 811H1531M1621 721V631M1621 721H1531M1621 631V541M1621 631H1531M1531 901H1441M1531 901V811M1441 901H1351M1441 901V811M1351 901H1306M1306 901H1261M1261 901L1081 901M1621 541V451M1621 541L1531 541M1621 451H1711M1621 451V361M1621 451H1531M1711 451H1801M1711 451V361M1801 451L1846 451M1801 451V406M1891 541V451M1891 541V631M1891 451L1846 451M1891 451V361M1891 631V676M1891 676V721M1891 721V811M1261 541V451M1261 541H1171M1261 541H1441M1261 451L1306 451M1261 451V406M1261 451L1081 451V541H1171M1171 541V451M1531 721V811M1531 721V631M1531 811H1441M1531 631V541M1531 541L1531 451M1531 541H1441M1531 451L1441 451M1531 451L1531 361M1441 541V451M1441 451L1351 451M1441 451V361M1441 811H1351M1306 428.5H1351M1306 428.5V406M1306 428.5V451M1351 428.5V406M1351 428.5V451M1351 406H1306M1351 406V361M1261 406H1283.5M1261 406V361M1283.5 406V383.5M1283.5 406H1306M1294 383.5V361M1294 383.5H1306M1294 383.5H1283.5M1294 361H1306M1294 361H1283.5M1306 361V373M1306 361H1351M1283.5 361L1261 361M1283.5 361V383.5M1306 373H1294.75M1306 373V383.5M1306 383.5V406M1711 68.5001H1723H1733.5M1711 68.5001V46.0001M1711 68.5001V91M1733.5 68.5001V46.0001M1733.5 68.5001V91M1711 46.0001H1723H1733.5M1711 46.0001V1.00006M1733.5 46.0001L1756 46.0001M1756 46.0001L1801 46.0001M1756 46.0001V91M1756 46.0001V1.00007M1801 46.0001V91.0001M1801 46.0001V1.00007M1846 226V181M1846 226H1801M1846 226H1891M1846 181H1801M1846 181H1891M1801 226V181M1801 226V271M1756 91H1733.5M1756 91L1801 91.0001M1733.5 91H1723H1711M1711 91L1621 91M1801 181V91.0001M1801 91.0001L1891 91.0001M1801 271H1711M1801 271H1891M1801 406V361M1801 406L1846 405.625M1801 361H1711M1801 361H1846M1351 361H1441M1351 361V271M1441 361H1531M1441 361V271M1531 361L1621 361M1531 361V271M1621 361H1711M1621 361V271M1711 361V271M1846 361V405.625M1846 361L1891 361M1846 405.625V451M1261 361V271M1171 271H1261M1171 271V181M1171 271H1081M1261 271L1351 271M1261 271V181M1351 271H1441M1351 271V181M1441 271H1531M1441 271V181M1531 271H1621M1531 271L1531 181M1621 271L1711 271M1621 271V181M1711 271V270.625M1171 181V136M1171 181H1126M1171 181L1261 181M1171 136H1126M1171 136V91M1036 181V158.5M1036 181L1081 181M1036 158.5V136M1036 158.5H991M1036 136H1081M1036 136H991M1081 136L1126 136M1081 136V181M1081 136V91M1126 136V181M1126 136V91M1081 181H1126M1081 181V271M1261 181H1351M1261 181V91M1351 181L1441 181M1351 181V91M1441 181H1531M1441 181V91M1531 181L1621 181M1531 181V91M1621 181V91M1126 91V90.625M1126 91L1081 91M1126 91H1171M991 46H1081M1081 46V1.00001M1081 46V91M1171 91L1261 91M1171 91V1.00002M1261 91L1351 91M1261 91V1.00002M1351 91L1441 91M1351 91V1.00003M1441 91L1531 91M1441 91V1.00004M1531 91L1621 91M1531 91V1.00005M1621 91V1.00005M991 136V158.5M1351 451H1306M1081 1.00001L1171 1.00002M1171 1.00002L1261 1.00002M1261 1.00002L1351 1.00003M1351 1.00003L1441 1.00004M1441 1.00004L1531 1.00005M1531 1.00005L1621 1.00005M1621 1.00005L1711 1.00006M1711 1.00006L1723 1.00006L1733.5 1.00006L1756 1.00007M1756 1.00007L1801 1.00007M1801 1.00007L1891 1.00008V91.0001M1891 91.0001V181M1891 181V226M1891 226V271M1891 271V361" stroke="#d6a351"/>
</svg>